<svg width="156" height="32" viewBox="0 0 156 32" fill="none" xmlns="http://www.w3.org/2000/svg">
<path d="M10.0141 30.5706H4.17528V15.8595H0.197754V11.0699H4.17513V7.66175C4.17513 3.62308 5.93433 0.726562 11.7574 0.726562C12.9889 0.726562 14.9225 0.977453 14.9225 0.977453V5.42488H12.8916C10.8224 5.42488 10.0144 6.06103 10.0144 7.81977V11.0699H14.845L14.4148 15.8595H10.0143L10.0141 30.5706ZM23.4115 10.6872C23.3264 10.6872 23.2389 10.6903 23.1523 10.6925C17.7381 10.6925 15.261 14.8085 15.261 20.6513C15.261 28.0117 18.4742 30.9576 23.1946 30.9576C25.8953 30.9576 27.6696 29.8087 28.7481 27.6647V30.5726H34.3017V11.0719H28.7481V14.0709C27.8675 12.1414 26.0436 10.71 23.4115 10.6872ZM24.8236 15.2951C27.0976 15.2951 28.4624 16.8982 28.4624 19.6249L28.4677 22.4099C28.4677 24.2477 27.3404 26.3979 24.8236 26.3979C20.9544 26.3979 21.0577 22.1753 21.0577 20.769C21.0577 16.0382 23.1192 15.2951 24.8236 15.2951ZM36.5445 20.8233C36.5445 18.4536 36.4323 10.6998 46.4275 10.6998C50.4397 10.6998 52.1151 11.9892 52.1151 11.9892L50.7686 16.2103C50.7686 16.2103 49.0954 15.2791 46.9152 15.2791C44.1227 15.2791 42.3409 16.9152 42.3409 19.7939L42.344 21.858C42.344 24.6241 44.0632 26.4705 46.9209 26.4705C48.9071 26.4705 50.7377 25.5305 50.7377 25.5305L52.0809 29.6635C52.0809 29.6635 50.549 30.961 46.4556 30.961C36.9386 30.961 36.5447 24.0044 36.5447 20.8233H36.5445ZM84.6777 10.6925C90.092 10.6925 92.6081 14.8085 92.6081 20.6513C92.6081 28.0117 89.3949 30.9576 84.6745 30.9576C81.9738 30.9576 79.9773 29.8088 78.8989 27.6647V30.5726L73.4152 30.5704V1.31949L79.2374 0.806277V13.8067C80.0778 11.5322 82.8393 10.6925 84.6779 10.6925H84.6777ZM83.0454 15.2951C80.7715 15.2951 79.2374 16.8982 79.2374 19.6249L79.232 22.4099C79.2286 24.2477 80.2944 26.3979 83.0454 26.3979C86.9147 26.3979 86.8113 22.1753 86.8113 20.769C86.8113 16.0382 84.7499 15.2951 83.0454 15.2951ZM62.2172 10.7086C56.0764 10.7086 52.8344 14.0925 52.8344 20.106V21.2233C52.8344 29.0283 57.3871 31.0378 62.8149 31.0378C68.0906 31.0378 70.4786 29.5464 70.4786 29.5464L69.3891 25.5747C69.3891 25.5747 66.5801 26.7826 63.513 26.7826C60.3333 26.7826 58.9658 25.9636 58.6153 22.8752H70.9441V19.689C70.9441 13.1658 67.3056 10.7085 62.2171 10.7085L62.2172 10.7086ZM62.3652 14.6856C64.4909 14.6856 65.8683 16.003 65.7926 19.0583H58.626C58.7503 15.8426 60.2357 14.6857 62.3652 14.6857V14.6856ZM104.217 10.6818C97.9113 10.6818 94.5914 14.2735 94.5914 20.7101C94.5914 29.5413 100.314 30.9629 104.228 30.9629C109.958 30.9629 113.77 27.8453 113.77 20.7903C113.77 13.4473 109.483 10.6818 104.217 10.6818ZM104.138 15.3111C106.911 15.3111 108.01 17.4086 108.01 19.7961V21.8488C108.01 24.7411 106.472 26.414 104.128 26.414C101.935 26.414 100.394 24.8491 100.394 21.8488V19.7961C100.394 16.5962 102.227 15.3111 104.138 15.3111ZM125.368 10.6818C119.062 10.6818 115.742 14.2735 115.742 20.7101C115.742 29.5413 121.465 30.9629 125.379 30.9629C131.108 30.9629 134.921 27.8453 134.921 20.7903C134.921 13.4473 130.634 10.6818 125.368 10.6818ZM125.289 15.3111C128.062 15.3111 129.161 17.4086 129.161 19.7961V21.8488C129.161 24.7411 127.623 26.414 125.279 26.414C123.086 26.414 121.545 24.8491 121.545 21.8488V19.7961C121.545 16.5962 123.378 15.3111 125.289 15.3111ZM137.121 30.5706V1.31949L142.96 0.806277V20.4122L148.753 11.0699H154.92L148.876 20.7458L155.152 30.5706H148.968L142.96 21.0308V30.5706H137.121Z" fill="#EFF2F7"/>
</svg>
