<svg width="127" height="42" viewBox="0 0 127 42" fill="none" xmlns="http://www.w3.org/2000/svg">
<path d="M15.5913 0H16.717C20.6253 0.0858707 24.4699 1.67448 27.2311 4.48674C26.2116 5.53866 25.1708 6.54764 24.1725 7.59955C22.6219 6.18269 20.7527 5.08784 18.7136 4.70142C15.6975 4.05739 12.4476 4.63702 9.92001 6.3759C7.15872 8.20065 5.28954 11.292 4.88597 14.598C4.43992 17.8611 5.35326 21.2959 7.45609 23.8291C9.47395 26.2979 12.5538 27.8436 15.7399 27.9509C18.7136 28.1226 21.8148 27.1995 23.9813 25.0957C25.6806 23.6144 26.4665 21.3603 26.7214 19.1706C23.1954 19.1706 19.6695 19.1921 16.1435 19.1706V14.7483H30.9907C31.7554 19.4926 30.6509 24.8381 27.0825 28.23C24.7035 30.6344 21.4112 32.0512 18.0552 32.3303C14.8054 32.6523 11.4493 32.0298 8.5606 30.4411C5.09838 28.5735 2.33709 25.4177 0.977688 21.7038C-0.296751 18.2904 -0.317992 14.4263 0.871485 10.9914C1.95476 7.85716 4.03634 5.08784 6.71267 3.15575C9.28279 1.24512 12.4052 0.193209 15.5913 0Z" fill="#EFF2F7"/>
<path d="M100.767 1.11646H105.312V31.7722C103.804 31.7722 102.275 31.7937 100.767 31.7508C100.788 21.5536 100.767 11.335 100.767 1.11646Z" fill="#EFF2F7"/>
<path d="M41.1009 11.7427C43.9046 11.206 46.9421 11.8071 49.2573 13.503C51.3601 15.0057 52.8257 17.3672 53.2718 19.9433C53.8453 22.9272 53.1231 26.1903 51.2114 28.5517C49.1511 31.1922 45.7738 32.6091 42.4815 32.3944C39.4653 32.2227 36.5341 30.6985 34.7499 28.2083C32.732 25.4604 32.2435 21.6821 33.348 18.462C34.4525 15.0057 37.5749 12.3652 41.1009 11.7427ZM41.7381 15.8215C40.5911 16.122 39.5291 16.7875 38.7644 17.7321C36.7041 20.2223 36.8315 24.2797 39.1043 26.5982C40.3999 27.9292 42.3541 28.5517 44.1595 28.1868C45.8375 27.8862 47.3032 26.7485 48.1103 25.2457C49.5122 22.6911 49.1086 19.1704 46.9633 17.174C45.5827 15.8859 43.5648 15.3492 41.7381 15.8215Z" fill="#EFF2F7"/>
<path d="M63.6142 11.7428C66.8216 11.1202 70.3263 12.0219 72.7265 14.2975C76.6348 17.8396 77.0596 24.4731 73.7248 28.552C71.7069 31.1281 68.4359 32.545 65.2073 32.3947C62.1274 32.3089 59.09 30.7632 57.2633 28.2085C55.2029 25.3963 54.7569 21.5321 55.9251 18.2475C57.0933 14.8985 60.152 12.3439 63.6142 11.7428ZM64.2514 15.8217C63.1044 16.1222 62.0424 16.7877 61.2777 17.7108C59.2386 20.1581 59.3236 24.1511 61.5114 26.4911C62.8071 27.8865 64.8249 28.5735 66.6941 28.1871C68.3509 27.865 69.8377 26.7487 70.6449 25.246C72.0255 22.6699 71.622 19.1492 69.4554 17.1527C68.0748 15.8646 66.0569 15.3494 64.2514 15.8217Z" fill="#EFF2F7"/>
<path d="M82.712 12.9879C85.1546 11.4422 88.4045 11.0128 91.0383 12.3438C91.8667 12.7088 92.5464 13.3313 93.2049 13.9539C93.2261 13.3743 93.2049 12.7732 93.2261 12.1721C94.6492 12.1936 96.0724 12.1721 97.5167 12.1936V31.128C97.4955 33.9832 96.7733 37.0101 94.7342 39.0925C92.5039 41.3895 89.0842 42.0979 86.0043 41.6257C82.712 41.1319 79.8445 38.7061 78.57 35.6362C79.8445 35.0136 81.1826 34.5199 82.4995 33.9403C83.243 35.7006 84.7511 37.2033 86.6415 37.5468C88.5319 37.8903 90.7197 37.418 91.9517 35.8294C93.2686 34.1979 93.2686 31.9652 93.2049 29.9687C92.2278 30.9348 91.102 31.7935 89.7426 32.1155C86.7902 32.9527 83.5403 31.9223 81.2676 29.9043C78.9736 27.8864 77.6142 24.7736 77.7416 21.6822C77.8054 18.183 79.7595 14.8126 82.712 12.9879ZM87.1088 15.7357C85.8131 15.9504 84.6024 16.6803 83.774 17.6893C81.7774 20.0936 81.7774 23.9363 83.7952 26.2978C84.9422 27.6932 86.7902 28.466 88.5744 28.2728C90.2524 28.1011 91.803 27.0277 92.6314 25.5464C94.0332 23.0347 93.7996 19.6213 91.9092 17.4316C90.7409 16.0792 88.8718 15.4137 87.1088 15.7357Z" fill="#EFF2F7"/>
<path d="M110.768 14.0829C113.317 11.6785 117.246 10.8628 120.517 12.1294C123.619 13.3101 125.594 16.2941 126.592 19.364C121.983 21.296 117.395 23.2067 112.786 25.1388C113.423 26.3624 114.4 27.4787 115.717 27.9296C117.565 28.5951 119.774 28.3589 121.325 27.1138C121.94 26.6415 122.429 26.0189 122.896 25.4178C124.065 26.2121 125.233 26.985 126.401 27.7793C124.744 30.291 121.962 32.0513 118.967 32.3304C115.653 32.7383 112.127 31.4502 109.982 28.8312C106.456 24.7094 106.796 17.7968 110.768 14.0829ZM113.041 18.0544C112.318 19.1063 112.021 20.3944 112.042 21.661C115.122 20.3729 118.202 19.0849 121.282 17.7754C120.772 16.5732 119.54 15.8433 118.287 15.6501C116.269 15.2851 114.166 16.38 113.041 18.0544Z" fill="#EFF2F7"/>
</svg>
