<svg width="80" height="80" viewBox="0 0 80 80" fill="none" xmlns="http://www.w3.org/2000/svg">
<g clip-path="url(#clip0_2466_11808)">
<path fill-rule="evenodd" clip-rule="evenodd" d="M71.5673 41.4778C73.4367 36.9646 74.3989 32.1273 74.3989 27.2422L0 27.2422C0 32.1273 0.962191 36.9646 2.83164 41.4778C4.70109 45.991 7.44118 50.0919 10.8955 53.5462C14.3498 57.0005 18.4506 59.7406 22.9638 61.61C24.1399 62.0972 25.338 62.5227 26.5532 62.8857V80.0001H47.8453V62.8858C49.0606 62.5228 50.2589 62.0972 51.4351 61.61C55.9483 59.7406 60.0491 57.0005 63.5034 53.5462C66.9577 50.0919 69.6978 45.991 71.5673 41.4778Z" fill="#4187FF"/>
<circle cx="20.2354" cy="11.1119" r="11.1119" fill="#FFC32A"/>
</g>
<defs>
<clipPath id="clip0_2466_11808">
<rect width="80" height="80" fill="white"/>
</clipPath>
</defs>
</svg>
