<svg width="160" height="40" viewBox="0 0 160 40" fill="none" xmlns="http://www.w3.org/2000/svg">
<path d="M17.2289 0.568362C15.1586 0.802852 12.0532 1.77689 10.2863 2.75092C5.53902 5.33032 2.32654 9.35273 0.720307 14.7099C0.399059 15.7561 0.0242706 18.6061 0.0421177 19.9409C0.0421177 21.1133 0.399059 23.9813 0.613224 24.6667C0.720307 24.9914 0.952319 25.767 1.14864 26.3623C1.46988 27.3724 3.02258 30.547 3.29029 30.7635C3.34383 30.8176 3.62938 31.1784 3.89709 31.5932C4.55743 32.5853 6.2886 34.353 7.59143 35.3631C8.59087 36.1387 11.4107 37.7802 11.7676 37.7982C11.8569 37.7982 11.8747 37.1128 11.8212 36.2109C11.6963 34.2087 12.071 31.485 12.8742 28.7072C13.0169 28.2382 13.124 27.6249 13.124 27.3544C13.124 27.0838 13.1954 26.7952 13.2847 26.705C13.3739 26.5968 13.5345 26.0737 13.6237 25.5325C13.7308 24.9914 13.9093 24.1617 14.0342 23.6927C14.2127 22.9892 14.1949 22.7187 13.945 21.9611C13.5881 20.8067 13.5702 18.9307 13.9271 18.0289C14.766 15.8824 15.694 15.0707 17.2645 15.0707C19.1563 15.0707 20.0665 16.5137 19.7096 18.9307C19.549 20.031 19.1028 21.7627 18.8172 22.3038C18.7459 22.4661 18.6209 22.9171 18.5674 23.2959C18.496 23.6927 18.3532 24.2519 18.264 24.5585C18.0141 25.262 18.496 26.6328 19.1385 27.1559C19.7453 27.643 21.0124 27.7873 22.1725 27.5167C22.9935 27.3363 23.3326 27.1199 24.1892 26.2901C25.2065 25.28 25.9739 24.1076 25.9739 23.5484C25.9739 23.3861 26.0632 23.1696 26.1702 23.0614C26.67 22.5563 26.9377 18.6241 26.5629 16.9646C26.1524 15.1428 24.8853 13.3571 23.2433 12.3109C21.6014 11.2467 18.2104 10.94 16.1223 11.6616C14.6589 12.1666 13.356 13.0144 12.5172 14.0065C11.7676 14.8903 10.9824 16.3333 10.9824 16.8384C10.9824 17.0188 10.8931 17.2532 10.7861 17.3615C10.679 17.4697 10.554 18.1551 10.5005 18.8947C10.4113 19.995 10.4827 20.5 10.8039 21.5823C11.0181 22.3218 11.4107 23.1876 11.6427 23.5123C12.1246 24.1617 12.1246 24.4142 11.6784 26.1458C11.5535 26.6148 11.3393 27.0477 11.2144 27.1018C10.09 27.5347 7.8056 24.811 7.03817 22.1054C6.75262 21.0772 6.73477 17.4156 7.02033 16.3333C7.14526 15.8824 7.35942 15.2691 7.5022 14.9444C7.64497 14.6378 7.7699 14.3311 7.7699 14.259C7.7699 14.1868 8.12685 13.5735 8.57302 12.9062C10.8931 9.37076 14.6589 7.49484 19.424 7.49484C20.5127 7.49484 21.6371 7.56699 21.9405 7.65718C24.4034 8.4328 25.0637 8.68533 26.0275 9.26254C27.9014 10.3989 29.2578 11.9502 30.6142 14.5476C30.7034 14.7099 30.8283 15.1428 30.8819 15.5036C30.9533 15.8643 31.0782 16.2071 31.1674 16.2612C31.2567 16.3153 31.3281 17.4877 31.3281 18.8766C31.3281 21.3839 31.1496 22.394 30.4 24.4503C29.5612 26.705 27.4017 29.1942 25.4385 30.1682C24.3141 30.7094 22.2082 31.3046 21.3694 31.3046C20.245 31.3046 18.032 30.3667 17.4252 29.6091C17.1396 29.2664 16.8719 29.3926 16.8719 29.8796C16.8719 30.06 16.8005 30.3667 16.6934 30.547C16.6042 30.7094 16.4436 31.2144 16.3543 31.6654C15.8368 34.0463 15.1051 35.9764 13.9807 37.7802C13.6416 38.3393 13.9271 38.664 14.8552 38.7903C15.3192 38.8624 15.9439 38.9887 16.2294 39.0789C16.9433 39.3134 20.8161 39.2773 22.119 39.0428C23.2969 38.8263 25.2065 38.2852 26.0632 37.9245C31.453 35.6878 35.54 31.1423 37.3068 25.3522C38.2527 22.2677 38.3063 18.6782 37.4496 15.0707C37.164 13.8982 37.0748 13.6277 36.3074 11.8239C35.2009 9.19039 32.7023 6.10594 30.168 4.21198C27.9906 2.58859 25.849 1.65062 22.5116 0.838928C21.5835 0.622475 18.2818 0.442098 17.2289 0.568362ZM64.827 7.07997C64.131 7.1882 63.0245 8.34261 62.7389 9.2445C62.4355 10.2366 62.7389 11.3008 63.5956 12.1305C65.4874 13.9884 68.7712 12.2388 68.3607 9.56918C68.1109 7.87363 66.576 6.79137 64.827 7.07997ZM45.3737 8.1442C45.2131 8.32458 45.2131 30.0781 45.3916 30.3306C45.4808 30.4749 46.2482 30.529 47.7474 30.511L49.9783 30.4929L50.0675 26.8313C50.1389 23.855 50.2103 23.1335 50.4244 23.0073C50.5672 22.9171 51.7808 22.8269 53.1193 22.8269C56.0463 22.8269 57.2777 22.6104 58.6162 21.8889C60.3652 20.9329 61.3825 19.5621 61.9358 17.3795C62.2749 16.0086 62.2749 15.0166 61.9179 13.6096C61.5967 12.347 61.4539 12.0403 60.6865 11.0122C59.7406 9.73152 58.7769 9.02805 57.2063 8.46888C56.3318 8.18027 55.6001 8.12616 50.8706 8.07205C47.9258 8.03597 45.4451 8.07205 45.3737 8.1442ZM55.1718 12.6356C56.3675 13.0144 56.9565 13.5555 57.2242 14.5295C57.5633 15.8102 57.3134 17.0007 56.5638 17.7222C55.7429 18.4978 55.0111 18.6782 52.6196 18.6782C51.0491 18.6782 50.5672 18.6241 50.353 18.3896C50.121 18.1732 50.0675 17.6501 50.0675 15.5938C50.0675 12.347 50.0496 12.365 52.5304 12.365C53.6012 12.365 54.6363 12.4732 55.1718 12.6356ZM86.4755 11.5714C86.4755 12.816 86.3863 13.9884 86.2971 14.1868C86.1721 14.4213 85.9223 14.5295 85.4939 14.5295C85.1727 14.5295 84.8693 14.6017 84.8336 14.7099C84.8158 14.8001 84.8157 15.4314 84.8693 16.0988C84.9585 17.2893 84.9764 17.3074 85.5118 17.4336C85.8152 17.4877 86.1543 17.596 86.2614 17.6681C86.422 17.7583 86.4755 19.1833 86.4755 22.7908C86.4755 27.643 86.4934 27.8233 86.886 28.5448C87.707 30.0781 88.992 30.6192 91.5976 30.547L93.3467 30.4929L93.4002 28.7433L93.4537 26.9756H93.0076C92.3294 26.9756 91.3299 26.4344 91.2228 26.0015C91.1693 25.7851 91.1158 23.8731 91.1158 21.7266C91.1158 18.7684 91.1693 17.7763 91.3478 17.632C91.4727 17.5238 91.9724 17.4156 92.4543 17.3795L93.3467 17.3254V14.6197L92.3651 14.5656C91.8297 14.5295 91.3299 14.4033 91.2585 14.2951C91.1872 14.1688 91.1158 12.9963 91.1158 11.6796V9.29861H86.4755V11.5714ZM152.813 9.40684C152.742 9.47899 152.688 10.6154 152.688 11.9321C152.688 14.4935 152.67 14.5295 151.689 14.5295C151.243 14.5295 151.243 14.5476 151.296 15.9184C151.35 17.2893 151.368 17.3254 151.832 17.3795C152.081 17.4156 152.385 17.5418 152.474 17.6501C152.581 17.7763 152.688 19.9589 152.742 22.7367C152.795 25.4063 152.885 27.8414 152.956 28.13C153.17 28.9236 154.277 29.9338 155.33 30.2765C156.507 30.6733 159.506 30.7094 159.809 30.3306C159.952 30.1682 160.006 29.5189 159.97 28.5809L159.916 27.0658L159.292 26.9575C158.613 26.8493 157.846 26.4886 157.65 26.1819C157.578 26.0737 157.507 24.1076 157.507 21.8168C157.507 17.1089 157.4 17.4156 158.953 17.4156C159.97 17.4156 160.059 17.2352 159.97 15.5938L159.916 14.6197L158.756 14.5295L157.596 14.4394L157.507 11.9141L157.418 9.3888L155.169 9.33469C153.938 9.31665 152.885 9.35273 152.813 9.40684ZM77.6412 14.0966C76.7667 14.3311 75.7494 14.9264 75.0712 15.6298C74.2503 16.4957 74.0361 16.4415 73.9469 15.3412L73.8933 14.6197H69.4316V30.4929L71.6803 30.529C73.8933 30.5831 73.9469 30.5651 74.054 30.1682C74.1075 29.9518 74.161 27.661 74.161 25.0636C74.161 19.9228 74.1789 19.7785 75.2319 18.7684C75.6959 18.3175 75.9457 18.2273 76.9452 18.1732L78.1052 18.101L78.8013 18.8406C79.6223 19.7064 79.533 18.8766 79.6044 26.3442C79.6223 28.3284 79.6401 30.078 79.6579 30.2584C79.6936 30.511 79.9792 30.547 81.9781 30.511L84.2446 30.4929V17.8304L83.7271 16.8023C82.8347 15.0166 81.4605 14.1688 79.3545 14.0606C78.605 14.0425 77.8375 14.0425 77.6412 14.0966ZM99.9501 14.0966C98.0226 14.6197 97.0946 15.1428 95.8988 16.3333C94.2926 17.9747 93.5608 19.8867 93.5608 22.4661C93.5787 26.9936 96.3807 30.3486 100.521 30.7454C104.055 31.0882 106.786 30.042 108.535 27.679C108.784 27.3363 109.32 26.236 109.32 26.0376C109.32 25.9655 108.285 25.8933 107.035 25.8933H104.751L104.216 26.4525C103.591 27.1018 102.716 27.5167 101.913 27.5167C101.11 27.5167 99.8787 26.9395 99.3076 26.3262C98.8793 25.8392 98.2546 24.4322 98.2546 23.9452C98.2546 23.7829 99.5574 23.7288 103.752 23.7288C106.768 23.7288 109.32 23.6566 109.445 23.5845C109.712 23.4041 109.463 20.5361 109.07 19.4899C108.267 17.3074 106.75 15.4675 105.215 14.8181C104.769 14.6378 104.251 14.4033 104.073 14.3131C103.698 14.1147 100.521 13.9523 99.9501 14.0966ZM103.43 18.0469C104.126 18.5339 104.733 19.6883 104.644 20.3377C104.59 20.7526 104.555 20.7526 101.538 20.8067C98.0583 20.8608 98.0405 20.8427 98.5937 19.544C98.9863 18.6421 99.7716 17.8304 100.503 17.596C101.342 17.3254 102.699 17.5418 103.43 18.0469ZM126.364 14.0966C124.293 14.6558 122.848 15.5757 121.724 17.0007C121.277 17.5779 120.92 18.119 120.92 18.2273C120.92 18.3175 120.795 18.6421 120.635 18.9488C120.474 19.2374 120.242 20.1393 120.117 20.951C119.493 24.811 121.206 28.4186 124.418 30.042L125.65 30.6733H128.238C130.915 30.6733 131.147 30.6192 132.789 29.7353C133.984 29.086 135.948 26.5607 135.644 26.0556C135.573 25.9655 134.556 25.8933 133.36 25.8933H131.165L130.718 26.4164C128.934 28.4547 125.596 27.4085 124.882 24.5765C124.775 24.1978 124.775 23.8731 124.865 23.8009C124.954 23.7468 127.506 23.7107 130.558 23.7288C134.913 23.7288 136.09 23.6927 136.108 23.5123C136.269 21.2576 135.198 17.9206 133.86 16.4776C133.11 15.6659 131.807 14.764 131.165 14.6017C130.879 14.5295 130.558 14.4033 130.433 14.3131C130.183 14.1147 126.917 13.9523 126.364 14.0966ZM129.148 17.614C129.951 17.9026 130.879 18.9127 131.022 19.6883C131.236 20.8608 131.254 20.8608 127.934 20.8067C124.954 20.7526 124.936 20.7526 124.882 20.3377C124.811 19.8326 125.436 18.588 125.971 18.1191C126.739 17.4697 128.077 17.2532 129.148 17.614ZM141.891 14.0966C138.232 14.9805 136.911 16.2972 136.894 19.039C136.894 21.9972 138.357 23.2418 142.694 24.0174C145.674 24.5405 146.531 25.0095 146.495 26.1458C146.477 26.9575 145.924 27.4806 144.818 27.7151C143.426 28.0218 142.337 27.679 141.462 26.687L140.766 25.8933H138.607C136.858 25.8933 136.447 25.9474 136.447 26.1458C136.447 26.6689 137.161 28.0398 137.75 28.7252C138.303 29.3205 138.732 29.6091 140.409 30.4208C140.57 30.511 141.445 30.6553 142.319 30.7635C143.943 30.9619 146.763 30.7815 147.477 30.4208C147.637 30.3486 148.102 30.1141 148.494 29.9338C149.511 29.4467 150.475 28.3464 150.832 27.3002C151.225 26.1098 151.118 24.4503 150.564 23.2959C149.904 21.943 148.155 20.969 145.549 20.5C142.194 19.9048 142.141 19.8867 141.605 19.3637C140.963 18.6963 140.963 18.4618 141.605 17.7403C142.123 17.1631 142.158 17.145 143.586 17.145C145.014 17.145 145.05 17.1631 145.567 17.7403C145.853 18.0649 146.085 18.4437 146.085 18.588C146.085 18.8045 146.46 18.8586 148.316 18.8586C150.779 18.8586 150.707 18.9127 150.279 17.632C149.494 15.3593 147.477 14.2049 144.122 14.0786C143.086 14.0425 142.087 14.0425 141.891 14.0966ZM118.154 14.4754C117.369 14.746 116.28 15.6479 115.941 16.2972C115.602 16.9466 115.299 16.676 115.209 15.5938L115.12 14.6197H110.658L110.605 22.1956C110.587 26.3623 110.605 29.9518 110.658 30.1863C110.748 30.5831 110.801 30.5831 112.943 30.547C114.174 30.529 115.174 30.4208 115.245 30.3125C115.316 30.2224 115.388 28.3104 115.388 26.0737C115.388 22.5383 115.424 21.907 115.727 21.1133C116.352 19.4719 117.69 18.4978 119.368 18.4978C119.832 18.4978 120.028 18.4077 120.082 18.1732C120.207 17.6501 120.224 15.215 120.117 14.6738C120.01 14.2409 119.921 14.1688 119.439 14.1868C119.118 14.2049 118.547 14.3311 118.154 14.4754ZM63.1851 14.746C63.1315 14.8723 63.1137 18.4257 63.1315 22.6465L63.1851 30.3125L65.3089 30.4027C66.5939 30.4568 67.5219 30.4208 67.6647 30.3125C67.861 30.1682 67.9146 28.635 67.9146 22.5022C67.9324 18.3175 67.8789 14.8001 67.8253 14.7099C67.6469 14.4394 63.2743 14.4754 63.1851 14.746Z" fill="#EFF2F7"/>
</svg>
