<svg width="144" height="33" viewBox="0 0 144 33" fill="none" xmlns="http://www.w3.org/2000/svg">
<path d="M24.5542 32.772L15.2043 32.5991C12.177 32.539 9.14218 32.6592 6.17434 32.0353C1.65934 31.1031 1.3395 26.5324 1.00478 22.6984C0.54361 17.3082 0.722127 11.8204 1.5924 6.47532C2.08332 3.47578 4.01725 1.68658 7.00741 1.49113C17.1011 0.784467 27.2617 0.867161 37.333 1.19794C38.3967 1.22801 39.4678 1.3934 40.5166 1.58134C45.6936 2.49849 45.82 7.67814 46.1547 12.0384C46.4894 16.4437 46.3481 20.8716 45.7084 25.2469C45.1952 28.8704 44.2133 31.9075 40.0703 32.2007C34.8784 32.5841 29.8055 32.8923 24.5988 32.7946C24.5988 32.772 24.569 32.772 24.5542 32.772ZM19.0573 23.6005C22.9698 21.3302 26.8079 19.0974 30.6981 16.8421C26.7782 14.5718 22.9475 12.3391 19.0573 10.0838V23.6005Z" fill="#EFF2F7"/>
<path d="M121.15 28.6524C120.972 29.3891 120.815 29.968 120.659 30.5844H117V2.05469H121.269V12.5795C121.492 12.2938 121.604 12.1735 121.7 12.0457C122.429 11.0308 123.374 10.3693 124.594 10.1137C126.535 9.73027 128.194 10.5948 128.782 12.4818C129.161 13.6545 129.406 14.91 129.436 16.1354C129.496 19.2853 129.451 22.4277 129.339 25.5776C129.295 26.5399 129.005 27.5247 128.64 28.4268C127.443 31.4038 123.53 31.8549 121.589 29.2763C121.47 29.1184 121.358 28.9455 121.15 28.6524ZM121.358 20.8039V26.0212C121.358 26.8707 121.805 27.3894 122.645 27.5848C123.471 27.7803 124.14 27.457 124.475 26.6827C124.616 26.3594 124.758 26.0212 124.765 25.6829C124.847 22.4953 124.921 19.3078 124.944 16.1128C124.944 15.5189 124.802 14.9025 124.624 14.3236C124.289 13.2786 123.367 12.9704 122.459 13.5793C121.775 14.0454 121.358 14.707 121.358 15.5866V20.8039ZM109.755 10.5196H114.225V30.5994H110.737C110.61 29.8401 110.484 29.0583 110.335 28.1411C110.097 28.4945 109.956 28.72 109.807 28.9455C108.646 30.637 107.003 31.2159 105.061 30.9077C103.402 30.637 102.406 29.344 102.183 27.224C102.116 26.5925 102.086 25.9535 102.086 25.322C102.071 20.6234 102.086 15.9098 102.086 11.2113V10.5046H106.608V11.324C106.608 15.8647 106.593 20.3979 106.623 24.9386C106.623 25.5851 106.69 26.2542 106.802 26.9007C106.928 27.5623 107.404 27.8029 108.044 27.7577C109.078 27.675 109.792 26.9007 109.792 25.8633V11.4067C109.755 11.1135 109.755 10.8429 109.755 10.5196ZM78.9754 10.5046H83.4681V11.3541C83.4681 15.8722 83.4532 20.3829 83.483 24.886C83.483 25.5325 83.5425 26.2016 83.6764 26.8331C83.8475 27.5773 84.2789 27.8179 85.0153 27.7202C86.0343 27.5773 86.6517 26.8631 86.6591 25.8182V11.4368V10.5347H91.1294V30.5994H87.6558C87.5294 29.8552 87.4029 29.0884 87.2393 28.1186C87.0161 28.4569 86.8897 28.6524 86.7632 28.8553C85.6029 30.5769 83.9739 31.2084 81.9879 30.9001C80.3961 30.6596 79.4217 29.4718 79.1242 27.5247C79.0424 26.9158 78.9829 26.3143 78.9829 25.7054C78.968 20.8264 78.968 15.9249 78.968 11.0459L78.9754 10.5046ZM76.6696 21.2249C76.6547 21.9014 76.6101 22.578 76.5729 23.2546C76.4018 25.2844 76.32 28.1637 74.6985 29.6447C73.6646 30.5769 72.3554 30.9152 71.0017 30.9603C70.3992 30.9753 69.7893 30.9753 69.1868 30.8926C66.3379 30.4566 65.0139 29.1861 64.5379 26.0212C63.9949 22.3675 63.9503 18.6538 64.5974 15.0002C65.2668 11.2188 67.5727 9.88063 71.1579 10.1287C74.5051 10.3693 76.0002 12.587 76.3944 15.7444C76.6101 17.5562 76.7142 19.3905 76.6696 21.2249ZM72.1174 20.5332C72.1174 19.2477 72.1472 17.9546 72.1025 16.6691C72.0728 15.9249 71.9761 15.1731 71.8199 14.4364C71.6414 13.5869 71.1058 13.1809 70.4364 13.1959C69.7818 13.211 69.3206 13.6169 69.0826 14.4063C69.0008 14.6995 68.9115 15.0002 68.9115 15.2934C68.9115 17.3081 68.8967 19.3304 68.8818 21.3451C68.8669 23.2246 68.6289 25.1942 69.2165 26.9909C69.395 27.5397 69.8562 27.8404 70.4587 27.8404C71.0463 27.8404 71.4331 27.5472 71.6488 27.021C71.8199 26.615 71.9686 26.1715 71.9686 25.7355C72.0207 24.0064 72.1174 22.2698 72.1174 20.5332ZM57.9774 16.7518C58.3716 14.8047 58.7435 12.9027 59.1526 10.9932C59.6659 8.56503 60.2386 6.13681 60.7444 3.70107C60.8709 3.10717 61.1089 2.96433 61.6667 2.97937C62.8643 3.02447 64.0842 2.9944 65.3635 2.9944C64.947 4.54305 64.5379 6.01652 64.1362 7.46744C62.8643 12.0232 61.5924 16.5939 60.3353 21.1647C60.2386 21.518 60.194 21.9014 60.194 22.2773C60.1791 24.7732 60.194 27.2616 60.194 29.7575V30.5694H55.8278C55.8129 30.3438 55.7831 30.1183 55.7831 29.8928C55.7831 28.4794 55.6716 27.0586 55.798 25.6603C56.1178 22.2999 55.0616 19.2101 54.2062 16.0827C53.0756 11.948 51.9301 7.79822 50.7995 3.66348C50.74 3.46802 50.7177 3.25752 50.6582 3.01695H55.1137C56.0509 7.58021 56.9956 12.1435 57.9774 16.7518ZM143.405 21.9917H135.878C135.959 23.5178 135.989 24.9687 136.145 26.4046C136.257 27.4044 136.8 27.8329 137.655 27.8404C138.548 27.8555 139.069 27.4044 139.277 26.4121C139.344 26.0888 139.388 25.7656 139.418 25.4348C139.448 25.1416 139.463 24.8258 139.485 24.4048C140.757 24.4725 141.999 24.5477 143.227 24.6003C143.941 26.7429 142.654 29.4943 140.489 30.3438C138.786 31.0204 137.038 31.0204 135.297 30.5017C134.011 30.1183 133.051 29.2914 132.62 28.0209C132.218 26.8331 131.839 25.5926 131.757 24.3522C131.534 21.2925 131.452 18.2027 131.913 15.1355C131.995 14.6243 132.136 14.1357 132.292 13.6395C132.917 11.5947 134.278 10.3392 136.383 10.1287C137.529 10.0159 138.712 10.0611 139.842 10.2565C141.672 10.5798 142.646 11.9104 143.07 13.6545C143.264 14.4739 143.405 15.3159 143.435 16.1504C143.442 18.0674 143.405 19.9694 143.405 21.9917ZM139.128 19.3529C139.128 17.8419 139.143 16.421 139.113 14.9927C139.113 14.6544 138.987 14.301 138.86 13.9778C138.607 13.3463 138.079 13.1734 137.447 13.1734C136.815 13.1734 136.413 13.4966 136.257 14.0755C135.781 15.8121 135.937 17.5863 135.952 19.368C137.09 19.3529 138.124 19.3529 139.128 19.3529Z" fill="#EFF2F7"/>
<path d="M94.5805 6.67847H90.1548V3.05493H103.365V6.65592H98.969V30.5698H94.5879L94.5805 6.67847Z" fill="#EFF2F7"/>
</svg>
